<svg xmlns="http://www.w3.org/2000/svg" width="27" height="28" viewBox="0 0 27 28" fill="none">
<g id="check (2) 1" clip-path="url(#clip0_34_4073)">
<g id="Group">
<g id="Group_2">
<path id="Vector" d="M27 13.9683L23.9435 10.5748L24.4221 6.03164L19.9526 5.08548L17.6727 1.12494L13.5 2.98985L12.9368 13.9683L13.5 24.9467L17.6728 26.8116L19.9526 22.8511L24.4221 21.9049L23.9435 17.3618L27 13.9683Z" fill="#BFA150"/>
<path id="Vector_2" d="M9.32723 1.12494L7.04743 5.08548L2.57796 6.03169L3.05652 10.5748L0 13.9683L3.05652 17.3618L2.57796 21.9049L7.04743 22.8511L9.32728 26.8116L13.5 24.9467V2.98985L9.32723 1.12494Z" fill="#BFA150"/>
</g>
<g id="Group_3">
<path id="Vector_3" d="M19.1595 11.0123L17.9778 9.95752L13.5 14.9743L12.9368 16.221L13.5 17.3529L19.1595 11.0123Z" fill="#F7F0EB"/>
<path id="Vector_4" d="M8.79416 12.7754L7.67419 13.8954L12.3831 18.6043L13.5 17.3529V14.9743L12.3177 16.2989L8.79416 12.7754Z" fill="#FFFBF5"/>
</g>
</g>
</g>
<defs>
<clipPath id="clip0_34_4073">
<rect width="27" height="27" fill="white" transform="translate(0 0.468262)"/>
</clipPath>
</defs>
</svg>