<svg xmlns="http://www.w3.org/2000/svg" width="127" height="105" viewBox="0 0 127 105" fill="none">
<path d="M51.8221 0.749512C21.9813 0.749512 -1.97748 25.9995 0.135735 56.313C1.95284 82.3575 23.3946 103.231 49.4666 104.375C69.4547 105.264 87.0873 94.8007 96.4689 78.8966C103.307 67.2883 113.375 57.929 125.785 52.6905L126.027 52.5827L125.771 52.475C113.496 47.2903 103.347 38.1465 96.6574 26.619C87.693 11.1458 70.9757 0.749512 51.8087 0.749512H51.8221Z" fill="#075E63"/>
<g filter="url(#filter0_d_23_1012)">
<path d="M51.8221 90.3567C30.9779 90.3567 14.0803 73.4508 14.0803 52.5962C14.0803 31.7416 30.9779 14.8357 51.8221 14.8357C72.6664 14.8357 89.564 31.7416 89.564 52.5962C89.564 73.4508 72.6664 90.3567 51.8221 90.3567Z" fill="white"/>
</g>
<path d="M60.9258 58.2891C58.668 58.2891 56.6784 59.3997 55.4287 61.0888L44.6242 55.5563C44.8036 54.9449 44.9297 54.3112 44.9297 53.6426C44.9297 52.7357 44.7438 51.8735 44.4225 51.0805L55.7299 44.2762C56.9882 45.753 58.8378 46.7109 60.9258 46.7109C64.7061 46.7109 67.7812 43.6358 67.7812 39.8555C67.7812 36.0751 64.7061 33 60.9258 33C57.1454 33 54.0703 36.0751 54.0703 39.8555C54.0703 40.7266 54.2497 41.553 54.5473 42.3202L43.2063 49.1445C41.949 47.7115 40.1261 46.7871 38.0742 46.7871C34.2939 46.7871 31.2188 49.8622 31.2188 53.6426C31.2188 57.4229 34.2939 60.498 38.0742 60.498C40.3693 60.498 42.3925 59.3548 43.6374 57.6183L54.4063 63.1328C54.208 63.7731 54.0703 64.4399 54.0703 65.1445C54.0703 68.9249 57.1454 72 60.9258 72C64.7061 72 67.7812 68.9249 67.7812 65.1445C67.7812 61.3642 64.7061 58.2891 60.9258 58.2891Z" fill="#075D63"/>
<defs>
<filter id="filter0_d_23_1012" x="8.08029" y="8.83569" width="95.4837" height="95.521" filterUnits="userSpaceOnUse" color-interpolation-filters="sRGB">
<feFlood flood-opacity="0" result="BackgroundImageFix"/>
<feColorMatrix in="SourceAlpha" type="matrix" values="0 0 0 0 0 0 0 0 0 0 0 0 0 0 0 0 0 0 127 0" result="hardAlpha"/>
<feOffset dx="4" dy="4"/>
<feGaussianBlur stdDeviation="5"/>
<feColorMatrix type="matrix" values="0 0 0 0 0 0 0 0 0 0.223529 0 0 0 0 0.368627 0 0 0 0.75 0"/>
<feBlend mode="normal" in2="BackgroundImageFix" result="effect1_dropShadow_23_1012"/>
<feBlend mode="normal" in="SourceGraphic" in2="effect1_dropShadow_23_1012" result="shape"/>
</filter>
</defs>
</svg>