<?xml version="1.0" encoding="utf-8"?>
<!-- Generator: Adobe Illustrator 25.0.0, SVG Export Plug-In . SVG Version: 6.00 Build 0)  -->
<svg version="1.1" id="Layer_1" xmlns="http://www.w3.org/2000/svg" xmlns:xlink="http://www.w3.org/1999/xlink" x="0px" y="0px"
	 viewBox="0 0 127 105" style="enable-background:new 0 0 127 105;" xml:space="preserve">
<style type="text/css">
	.st0{fill:#8F4914;}
	.st1{fill:#FFFFFF;}
	.st2{fill:#8F4915;}
</style>
<path class="st0" d="M115.3,52.8C115.3,23,90.1-1,59.8,1.2C33.7,3,12.9,24.4,11.7,50.5c-0.9,20,9.6,37.6,25.5,47
	c5.8,3.4,16,6.5,26.2,6.5s20.3-3,26.1-6.3C104.9,88.7,115.3,72,115.3,52.8L115.3,52.8z"/>
<g>
	<path class="st1" d="M63.5,89.5c-20.8,0-37.7-16.9-37.7-37.8S42.7,14,63.5,14c20.8,0,37.7,16.9,37.7,37.8S84.3,89.5,63.5,89.5z"/>
</g>
<g>
	<path class="st2" d="M50.6,50c0,0.3,0.2,0.5,0.5,0.6c0.1,0,8.7,0.7,11.3,4.7c0.2-0.1,0.4-0.1,0.5-0.1V40c-1.6-1.7-5.1-4.3-11.8-4.1
		C50.1,36,50.9,37,50.6,50z"/>
	<path class="st2" d="M76,50.5c0.3,0,0.5-0.3,0.5-0.6V36.5c0-0.3-0.2-0.6-0.5-0.6c-6.7-0.2-10.2,2.4-11.8,4.1v15.1
		c0.2,0,0.4,0.1,0.6,0.1C67.4,51.1,75.9,50.5,76,50.5z"/>
	<path class="st2" d="M82,65.7l-13.2-5.2l12.9-5.2c0.1-0.1,0.2-0.1,0.3-0.3c0.1-0.1,0.9-1.8-0.1-3.2c-0.2-0.2-0.4-0.3-0.7-0.2
		l-14.5,5.7c-2.1-2-4.8-1.1-6.2-0.1l-14.9-5.8c-0.2-0.1-0.5,0-0.7,0.2C44.1,53,45,54.7,45,54.8c0.1,0.1,0.2,0.2,0.3,0.3l13.5,5.4
		L44.9,66c-0.2,0.1-0.4,0.4-0.4,0.6c0,0.9,0.7,2.5,2.8,2.5c0.1,0,0.1,0,0.2-0.1l16.2-6.5l15.5,6.3c0.1,0,0.1,0.1,0.2,0.1
		c2.2,0,2.8-1.7,2.8-2.5C82.4,66,82.3,65.8,82,65.7z M63.8,58.6l-1.9-0.8c0.9-0.4,2.3-0.8,3.6,0.1L63.8,58.6z"/>
	<path class="st2" d="M61.3,55.6c-2.1-2.8-8-3.8-10.2-4c-0.9-0.1-1.6-0.8-1.6-1.7c0.1-5.2,0-8.4,0-10.5c0-0.9-0.1-1.7,0-2.4
		l-2.3,1.6C47,38.8,47,39,47,39.1v11.6L60.5,56C60.7,55.9,61,55.8,61.3,55.6z"/>
	<path class="st2" d="M65.9,55.5c0.4,0.2,0.7,0.4,1.1,0.6l13.2-5.2V39.1c0-0.2-0.1-0.4-0.2-0.5L77.7,37v12.9c0,0.9-0.7,1.7-1.6,1.7
		C73.9,51.8,68.1,52.9,65.9,55.5z"/>
</g>
</svg>
