<svg xmlns="http://www.w3.org/2000/svg" width="127" height="105" viewBox="0 0 127 105" fill="none">
<path d="M51.8221 0.359985C21.9813 0.359985 -1.97748 25.61 0.135735 55.9235C1.95284 81.968 23.3946 102.841 49.4666 103.986C69.4547 104.875 87.0873 94.4112 96.4689 78.507C103.307 66.8988 113.375 57.5395 125.785 52.3009L126.027 52.1932L125.771 52.0855C113.496 46.9008 103.347 37.7569 96.6574 26.2294C87.693 10.7562 70.9757 0.359985 51.8087 0.359985H51.8221Z" fill="#8F4914"/>
<g filter="url(#filter0_d_23_1009)">
<path d="M51.2582 89.521C30.4139 89.521 13.5163 72.6151 13.5163 51.7605C13.5163 30.9059 30.4139 14 51.2582 14C72.1024 14 89 30.9059 89 51.7605C89 72.6151 72.1024 89.521 51.2582 89.521Z" fill="white"/>
</g>
<path d="M38.6773 49.9591C38.6773 50.2545 38.9136 50.4909 39.2091 50.55C39.3273 50.55 47.8955 51.2 50.4955 55.2772C50.6727 55.2181 50.85 55.2181 51.0273 55.2181V40.0318C49.4318 38.3181 45.8864 35.7181 39.2091 35.9545C38.1455 35.9545 38.9136 37.0181 38.6773 49.9591Z" fill="#8F4915"/>
<path d="M64.0273 50.55C64.3227 50.55 64.5591 50.2545 64.5591 49.9591V36.4863C64.5591 36.1909 64.3227 35.8954 64.0273 35.8954C57.35 35.6591 53.8046 38.2591 52.2091 39.9727V55.1C52.3864 55.1 52.5637 55.1591 52.8 55.1591C55.4 51.1409 63.9091 50.55 64.0273 50.55Z" fill="#8F4915"/>
<path d="M70.0546 65.7364L56.8182 60.5364L69.7 55.3364C69.8182 55.2773 69.9364 55.2182 69.9955 55.0409C70.0546 54.9818 70.9409 53.2091 69.9364 51.85C69.7591 51.6136 69.5227 51.5545 69.2864 51.6727L54.8091 57.3455C52.6818 55.3955 49.9636 56.2818 48.6045 57.2273L33.7136 51.4364C33.4773 51.3182 33.1818 51.4364 33.0636 51.6136C32.1182 52.9727 33.0045 54.6864 33.0045 54.8045C33.0636 54.9227 33.1818 55.0409 33.3 55.1L46.8318 60.5364L32.9455 65.9727C32.7091 66.0909 32.5909 66.3273 32.5909 66.5636C32.5909 67.45 33.2409 69.0455 35.4273 69.0455C35.4864 69.0455 35.5455 69.0455 35.6636 68.9864L51.8545 62.4864L67.3955 68.75C67.4546 68.75 67.5136 68.8091 67.6318 68.8091C69.8182 68.8091 70.4682 67.1545 70.4682 66.2682C70.4091 66.0318 70.2909 65.7955 70.0546 65.7364ZM51.8545 58.5864L49.9636 57.8182C50.85 57.4045 52.2682 57.05 53.5682 57.8773L51.8545 58.5864Z" fill="#8F4915"/>
<path d="M49.3727 55.6318C47.2455 52.8545 41.3364 51.85 39.15 51.6727C38.2636 51.6136 37.5546 50.8455 37.5546 49.9591C37.6727 44.7591 37.5546 41.5682 37.5546 39.4409C37.5546 38.4955 37.4955 37.7273 37.5546 37.0773L35.25 38.6727C35.0727 38.7909 35.0136 38.9682 35.0136 39.1455V50.7273L48.4864 56.0455C48.7227 55.8682 49.0182 55.75 49.3727 55.6318Z" fill="#8F4915"/>
<path d="M53.9227 55.5136C54.2773 55.6909 54.6318 55.8682 54.9864 56.1046L68.1636 50.9046V39.1455C68.1636 38.9682 68.1045 38.7909 67.9273 38.6727L65.6818 37.0182V49.9C65.6818 50.7864 64.9727 51.5546 64.0864 51.6136C61.9591 51.7909 56.1091 52.8546 53.9227 55.5136Z" fill="#8F4915"/>
<defs>
<filter id="filter0_d_23_1009" x="7.51633" y="8" width="95.4837" height="95.521" filterUnits="userSpaceOnUse" color-interpolation-filters="sRGB">
<feFlood flood-opacity="0" result="BackgroundImageFix"/>
<feColorMatrix in="SourceAlpha" type="matrix" values="0 0 0 0 0 0 0 0 0 0 0 0 0 0 0 0 0 0 127 0" result="hardAlpha"/>
<feOffset dx="4" dy="4"/>
<feGaussianBlur stdDeviation="5"/>
<feColorMatrix type="matrix" values="0 0 0 0 0.545098 0 0 0 0 0.270588 0 0 0 0 0.109804 0 0 0 0.75 0"/>
<feBlend mode="normal" in2="BackgroundImageFix" result="effect1_dropShadow_23_1009"/>
<feBlend mode="normal" in="SourceGraphic" in2="effect1_dropShadow_23_1009" result="shape"/>
</filter>
</defs>
</svg>