<svg xmlns="http://www.w3.org/2000/svg" width="127" height="105" viewBox="0 0 127 105" fill="none">
<path d="M51.8221 0.889771C21.9813 0.889771 -1.97748 26.1398 0.135735 56.4533C1.95284 82.4978 23.3946 103.371 49.4666 104.516C69.4547 105.405 87.0873 94.941 96.4689 79.0368C103.307 67.4286 113.375 58.0692 125.785 52.8307L126.027 52.723L125.771 52.6152C113.496 47.4306 103.347 38.2867 96.6574 26.7592C87.693 11.286 70.9757 0.889771 51.8087 0.889771H51.8221Z" fill="#907020"/>
<g filter="url(#filter0_d_23_1006)">
<path d="M51.8221 90.4835C30.9779 90.4835 14.0803 73.5775 14.0803 52.7229C14.0803 31.8684 30.9779 14.9624 51.8221 14.9624C72.6664 14.9624 89.564 31.8684 89.564 52.7229C89.564 73.5775 72.6664 90.4835 51.8221 90.4835Z" fill="white"/>
</g>
<path d="M64.3105 37.4148H63.1701V65.4308C63.1701 67.292 61.6551 68.807 59.7939 68.807H48.2397H39.0517V69.8455C39.0517 71.0348 40.0169 72 41.2061 72H52.7563H64.3064C65.4956 72 66.4608 71.0348 66.4608 69.8455V39.5692C66.4609 38.38 65.4997 37.4148 64.3105 37.4148Z" fill="#907020"/>
<path d="M48.2397 67.5852H59.7898C60.979 67.5852 61.9443 66.62 61.9443 65.4308V37.4148V35.1544C61.9443 33.9652 60.979 33 59.7898 33H48.2397H44.3991V33.7127C44.4072 33.786 44.4113 33.8634 44.4113 33.9408V38.6366V39.8421C44.4113 41.516 43.0511 42.8763 41.3772 42.8763H40.1717H35.4759C35.4148 42.8763 35.3496 42.8722 35.2885 42.8681H34.5392V65.4308C34.5392 66.62 35.5044 67.5852 36.6936 67.5852H39.0558H48.2397ZM48.6754 60.2625H41.1451C40.583 60.2625 40.1269 59.8064 40.1269 59.2444C40.1269 58.6823 40.583 58.2262 41.1451 58.2262H48.6795C49.2416 58.2262 49.6977 58.6823 49.6977 59.2444C49.6977 59.8064 49.2375 60.2625 48.6754 60.2625ZM56.2099 55.0658H41.1451C40.583 55.0658 40.1269 54.6097 40.1269 54.0477C40.1269 53.4856 40.583 53.0295 41.1451 53.0295H56.2099C56.7719 53.0295 57.2281 53.4856 57.2281 54.0477C57.2281 54.6097 56.7719 55.0658 56.2099 55.0658ZM41.1451 47.511H56.2099C56.7719 47.511 57.2281 47.9671 57.2281 48.5291C57.2281 49.0912 56.7719 49.5473 56.2099 49.5473H41.1451C40.583 49.5473 40.1269 49.0912 40.1269 48.5291C40.1269 47.9671 40.583 47.511 41.1451 47.511Z" fill="#907020"/>
<path d="M35.4759 41.6545H41.3772C41.3813 41.6545 41.3894 41.6545 41.3935 41.6545C42.3791 41.6463 43.1773 40.8481 43.1855 39.8625C43.1855 39.8584 43.1855 39.8503 43.1855 39.8462V33.9408C43.1855 33.3951 42.7375 33.0326 42.2732 33.0326C42.0492 33.0326 41.8252 33.114 41.6379 33.3014L34.8324 40.1068C34.2622 40.677 34.6654 41.6545 35.4759 41.6545Z" fill="#907020"/>
<defs>
<filter id="filter0_d_23_1006" x="8.08029" y="8.9624" width="95.4837" height="95.5211" filterUnits="userSpaceOnUse" color-interpolation-filters="sRGB">
<feFlood flood-opacity="0" result="BackgroundImageFix"/>
<feColorMatrix in="SourceAlpha" type="matrix" values="0 0 0 0 0 0 0 0 0 0 0 0 0 0 0 0 0 0 127 0" result="hardAlpha"/>
<feOffset dx="4" dy="4"/>
<feGaussianBlur stdDeviation="5"/>
<feColorMatrix type="matrix" values="0 0 0 0 0.545098 0 0 0 0 0.270588 0 0 0 0 0.109804 0 0 0 0.75 0"/>
<feBlend mode="normal" in2="BackgroundImageFix" result="effect1_dropShadow_23_1006"/>
<feBlend mode="normal" in="SourceGraphic" in2="effect1_dropShadow_23_1006" result="shape"/>
</filter>
</defs>
</svg>