<?xml version="1.0" encoding="utf-8"?>
<!-- Generator: Adobe Illustrator 25.0.0, SVG Export Plug-In . SVG Version: 6.00 Build 0)  -->
<svg version="1.1" id="Layer_1" xmlns="http://www.w3.org/2000/svg" xmlns:xlink="http://www.w3.org/1999/xlink" x="0px" y="0px"
	 viewBox="0 0 127 105" style="enable-background:new 0 0 127 105;" xml:space="preserve">
<style type="text/css">
	.st0{fill:#075E63;}
	.st1{fill:#FFFFFF;}
	.st2{fill:#075D63;}
</style>
<path class="st0" d="M115.2,52.3c0-29.8-25.2-53.7-55.5-51.6c-26,1.8-46.8,23.2-48,49.2c-0.9,19.9,9.6,37.5,25.4,46.9
	c5.8,3.4,15.4,7.6,25.5,7.6c10.2,0,20.9-4.1,26.6-7.4C104.9,88.1,115.2,71.4,115.2,52.3L115.2,52.3z"/>
<g>
	<path class="st1" d="M63.5,90.4c-20.8,0-37.7-16.9-37.7-37.8s16.9-37.8,37.7-37.8c20.8,0,37.7,16.9,37.7,37.8S84.3,90.4,63.5,90.4z
		"/>
</g>
<path class="st2" d="M74.9,58.3c-2.3,0-4.2,1.1-5.5,2.8l-10.8-5.5c0.2-0.6,0.3-1.2,0.3-1.9c0-0.9-0.2-1.8-0.5-2.6l11.3-6.8
	c1.3,1.5,3.1,2.4,5.2,2.4c3.8,0,6.9-3.1,6.9-6.9c0-3.8-3.1-6.9-6.9-6.9c-3.8,0-6.9,3.1-6.9,6.9c0,0.9,0.2,1.7,0.5,2.5l-11.3,6.8
	c-1.3-1.4-3.1-2.4-5.1-2.4c-3.8,0-6.9,3.1-6.9,6.9c0,3.8,3.1,6.9,6.9,6.9c2.3,0,4.3-1.1,5.6-2.9l10.8,5.5c-0.2,0.6-0.3,1.3-0.3,2
	c0,3.8,3.1,6.9,6.9,6.9c3.8,0,6.9-3.1,6.9-6.9C81.8,61.4,78.7,58.3,74.9,58.3z"/>
</svg>
