<?xml version="1.0" encoding="utf-8"?>
<!-- Generator: Adobe Illustrator 25.0.0, SVG Export Plug-In . SVG Version: 6.00 Build 0)  -->
<svg version="1.1" id="Layer_1" xmlns="http://www.w3.org/2000/svg" xmlns:xlink="http://www.w3.org/1999/xlink" x="0px" y="0px"
	 viewBox="0 0 127 105" style="enable-background:new 0 0 127 105;" xml:space="preserve">
<style type="text/css">
	.st0{fill:#907020;}
	.st1{fill:#FFFFFF;}
</style>
<path class="st0" d="M115.3,52.8C115.3,23,90.1-1,59.8,1.1c-26,1.8-46.9,23.3-48.1,49.3c-0.9,20,9.6,37.6,25.5,47
	c11.6,6.8,16.9,7.5,26.3,7.5l0,0l0,0c9.2,0,14.4-0.7,26-7.3C104.9,88.7,115.3,72,115.3,52.8L115.3,52.8z"/>
<g>
	<path class="st1" d="M63.5,90.5c-20.8,0-37.7-16.9-37.7-37.8C25.8,31.9,42.7,15,63.5,15c20.8,0,37.7,16.9,37.7,37.8
		C101.2,73.6,84.3,90.5,63.5,90.5z"/>
</g>
<path class="st0" d="M76.6,37.4h-1.1v28c0,1.9-1.5,3.4-3.4,3.4H60.5h-9.2v1c0,1.2,1,2.2,2.2,2.2H65h11.6c1.2,0,2.2-1,2.2-2.2V39.6
	C78.7,38.4,77.8,37.4,76.6,37.4z"/>
<path class="st0" d="M60.5,67.6H72c1.2,0,2.2-1,2.2-2.2v-28v-2.3c0-1.2-1-2.2-2.2-2.2H60.5h-3.8v0.7c0,0.1,0,0.2,0,0.2v4.7v1.2
	c0,1.7-1.4,3-3,3h-1.2h-4.7c-0.1,0-0.1,0-0.2,0h-0.7v22.6c0,1.2,1,2.2,2.2,2.2h2.4H60.5z M60.9,60.3h-7.5c-0.6,0-1-0.5-1-1
	c0-0.6,0.5-1,1-1h7.5c0.6,0,1,0.5,1,1C62,59.8,61.5,60.3,60.9,60.3z M68.5,55.1H53.4c-0.6,0-1-0.5-1-1c0-0.6,0.5-1,1-1h15.1
	c0.6,0,1,0.5,1,1C69.5,54.6,69,55.1,68.5,55.1z M53.4,47.5h15.1c0.6,0,1,0.5,1,1c0,0.6-0.5,1-1,1H53.4c-0.6,0-1-0.5-1-1
	C52.4,48,52.8,47.5,53.4,47.5z"/>
<path class="st0" d="M47.7,41.7h5.9c0,0,0,0,0,0c1,0,1.8-0.8,1.8-1.8c0,0,0,0,0,0v-5.9c0-0.5-0.4-0.9-0.9-0.9
	c-0.2,0-0.4,0.1-0.6,0.3l-6.8,6.8C46.5,40.7,46.9,41.7,47.7,41.7z"/>
</svg>
