<?xml version="1.0" encoding="utf-8"?>
<!-- Generator: Adobe Illustrator 25.0.0, SVG Export Plug-In . SVG Version: 6.00 Build 0)  -->
<svg version="1.1" id="Layer_1" xmlns="http://www.w3.org/2000/svg" xmlns:xlink="http://www.w3.org/1999/xlink" x="0px" y="0px"
	 viewBox="0 0 127 104" style="enable-background:new 0 0 127 104;" xml:space="preserve">
<style type="text/css">
	.st0{fill:#8A1A17;}
	.st1{fill:#FFFFFF;}
	.st2{clip-path:url(#SVGID_2_);}
	.st3{fill:#861B19;}
</style>
<path class="st0" d="M115.3,52.3c0-29.8-25.2-53.8-55.6-51.7C33.7,2.5,12.9,23.9,11.7,50c-0.9,20,9.6,37.6,25.5,47
	c5.8,3.4,16.1,6.5,26.3,6.5s20.2-3,26-6.3C104.9,88.2,115.3,71.5,115.3,52.3L115.3,52.3z"/>
<g>
	<path class="st1" d="M63.5,89.5c-20.8,0-37.7-16.9-37.7-37.8S42.7,14,63.5,14c20.8,0,37.7,16.9,37.7,37.8S84.3,89.5,63.5,89.5z"/>
</g>
<g>
	<defs>
		<rect id="SVGID_1_" x="44" y="32.5" width="39" height="39"/>
	</defs>
	<clipPath id="SVGID_2_">
		<use xlink:href="#SVGID_1_"  style="overflow:visible;"/>
	</clipPath>
	<g class="st2">
		<path class="st3" d="M69.5,52.2c-0.2,1.4-0.8,2.8-1.9,3.9c-1.3,1.3-3.1,1.9-5.4,1.8c-1.6-0.1-2.3,0.4-2.4,0.4
			c-0.5,0.4-1.1,0.7-1.8,0.7c-0.7,0-1.4-0.3-1.9-0.8c-0.9-0.9-1-2.2-0.4-3.2l0.4-0.7c0.1-0.4,0.3-1,0.3-2.2
			c-0.1-2.3,0.5-4.1,1.8-5.4c1.1-1.1,2.4-1.7,3.9-1.9c0.2-1,0.7-1.9,1.3-2.7H48.2c-1.7,0-3.1,1.4-3.1,3v15.1H77v-15L73.1,50
			C72.2,51.1,70.9,51.9,69.5,52.2z"/>
		<path class="st3" d="M45.1,63.6c0,1.7,1.4,3,3.1,3h8.7v2.6h-1.9c-0.6,0-1.1,0.5-1.1,1.1c0,0.6,0.5,1.1,1.1,1.1h12.2
			c0.6,0,1.1-0.5,1.1-1.1c0-0.6-0.5-1.1-1.1-1.1h-1.9v-2.6h8.7c1.7,0,3.1-1.4,3.1-3v-1H45.1L45.1,63.6L45.1,63.6z"/>
		<path class="st3" d="M57.9,55.9C57.9,55.9,57.9,55.9,57.9,55.9C57.9,55.9,57.9,55.9,57.9,55.9L57.9,55.9
			C57.9,55.9,57.9,55.9,57.9,55.9C57.9,56,57.9,56,57.9,55.9L57.9,55.9C57.9,56,57.9,56,57.9,55.9C57.9,56,57.9,56,57.9,55.9
			C57.9,56,57.9,56,57.9,55.9C57.9,56,57.9,56,57.9,55.9C57.9,56,57.9,56,57.9,55.9C57.9,56,57.9,56,57.9,55.9L57.9,55.9
			c-0.1,0.2-0.1,0.4,0,0.5c0.1,0.1,0.2,0.1,0.3,0.1c0.1,0,0.2,0,0.3-0.1c0,0,1.2-1.1,4-1c1.6,0.1,2.8-0.3,3.6-1.1
			c1.7-1.7,1.7-4.4,0-6.1c-0.8-0.8-1.9-1.3-3-1.3s-2.2,0.4-3,1.3c-0.8,0.8-1.2,2-1.1,3.6C59,54.8,57.9,55.9,57.9,55.9
			C57.9,55.9,57.9,55.9,57.9,55.9z"/>
		<path class="st3" d="M69.4,49.8c0.7-0.2,1.4-0.7,1.9-1.3l1.5-1.8l-5.2-5.2L65.8,43c-0.6,0.5-1.1,1.2-1.3,1.9
			c1.2,0.3,2.3,0.9,3.1,1.8C68.6,47.6,69.2,48.7,69.4,49.8z"/>
		<path class="st3" d="M81.2,33.2C80.3,32.3,79,32.3,78,33l-8.7,7.1l4.9,4.9l7.1-8.7C82.1,35.4,82,34,81.2,33.2z"/>
	</g>
</g>
</svg>
