
<svg width="127" height="104" viewBox="0 0 127 104" fill="none" xmlns="http://www.w3.org/2000/svg">
<path d="M51.8221 0.219727C21.9813 0.219727 -1.97748 25.4697 0.135735 55.7832C1.95284 81.8277 23.3946 102.701 49.4666 103.846C69.4547 104.735 87.0873 94.271 96.4689 78.3668C103.307 66.7586 113.375 57.3992 125.785 52.1607L126.027 52.0529L125.771 51.9452C113.496 46.7606 103.347 37.6167 96.6574 26.0892C87.693 10.616 70.9757 0.219727 51.8087 0.219727H51.8221Z" fill="#8A1A17"/>
<g filter="url(#filter0_d_23_1003)">
<path d="M51.2582 89.5211C30.4139 89.5211 13.5163 72.6151 13.5163 51.7605C13.5163 30.9059 30.4139 14 51.2582 14C72.1024 14 89 30.9059 89 51.7605C89 72.6151 72.1024 89.5211 51.2582 89.5211Z" fill="white"/>
</g>
<g clip-path="url(#clip0_23_1003)">
<path d="M57.5386 52.663C57.3634 54.0942 56.7197 55.4585 55.6594 56.5188C54.3706 57.8084 52.5691 58.4155 50.3068 58.3241C48.7201 58.2609 47.9873 58.676 47.867 58.7514C47.381 59.1772 46.764 59.4103 46.1127 59.4103C45.4005 59.4103 44.731 59.133 44.2275 58.6295C43.3584 57.7604 43.2182 56.4198 43.8116 55.3983L44.2374 54.7234C44.3821 54.3708 44.5779 53.6745 44.5322 52.5495C44.4415 50.2864 45.0486 48.4857 46.3375 47.1968C47.3932 46.1419 48.743 45.4883 50.2024 45.3139C50.4089 44.3213 50.856 43.3928 51.5012 42.6128H36.1921C34.5102 42.6128 33.1414 43.9808 33.1414 45.6627V60.7898H64.9662V45.7694L61.0989 50.5088C60.1894 51.6202 58.9264 52.3766 57.5386 52.663Z" fill="#861B19"/>
<path d="M33.1414 64.05C33.1414 65.7311 34.5102 67.0991 36.1921 67.0991H44.8619V69.7149H42.9403C42.3092 69.7149 41.7977 70.2265 41.7977 70.8575C41.7977 71.4885 42.3092 72.0001 42.9403 72.0001H55.1669C55.7979 72.0001 56.3095 71.4885 56.3095 70.8575C56.3095 70.2265 55.7979 69.7149 55.1669 69.7149H53.2452V67.0991H61.9154C63.5973 67.0991 64.9661 65.7311 64.9661 64.05V63.075H33.1413V64.05H33.1414Z" fill="#861B19"/>
<path d="M45.871 56.4484C45.8708 56.4486 45.8705 56.4488 45.8704 56.449C45.8702 56.4491 45.8702 56.4492 45.8701 56.4493L45.8698 56.4496C45.8696 56.4497 45.8695 56.4499 45.8694 56.45C45.8693 56.4503 45.8692 56.4502 45.869 56.4504L45.8689 56.4505C45.8689 56.4506 45.8687 56.4507 45.8686 56.4509C45.8686 56.4509 45.8686 56.4509 45.8685 56.4509C45.8684 56.451 45.8683 56.4512 45.8682 56.4513C45.8682 56.4513 45.8682 56.4513 45.8681 56.4514C45.8679 56.4515 45.8679 56.4516 45.8677 56.4518C45.8677 56.4518 45.8677 56.4518 45.8676 56.4518L45.8673 56.4522C45.7228 56.6013 45.7243 56.8392 45.8715 56.9865C45.9459 57.0608 46.0434 57.098 46.1409 57.098C46.2375 57.098 46.334 57.0615 46.4082 56.9885C46.4315 56.9664 47.5852 55.8998 50.4275 56.014C52.0266 56.0785 53.2527 55.6954 54.072 54.8761C55.7511 53.197 55.7511 50.465 54.072 48.786C53.2587 47.9726 52.1773 47.5247 51.027 47.5247C49.8767 47.5247 48.7953 47.9725 47.9819 48.786C47.1626 49.6053 46.7797 50.8315 46.844 52.4305C46.9589 55.2882 45.8802 56.4389 45.8715 56.4479C45.8712 56.4481 45.8711 56.4483 45.871 56.4484Z" fill="#861B19"/>
<path d="M57.4396 50.3137C58.1845 50.0905 58.8556 49.6487 59.356 49.0371L60.816 47.248L55.6152 42.0472L53.8336 43.5024C53.2204 44.0021 52.7771 44.6724 52.5531 45.4174C53.7307 45.6939 54.8109 46.2934 55.6876 47.1701C56.5849 48.0674 57.1691 49.1605 57.4396 50.3137Z" fill="#861B19"/>
<path d="M69.1723 33.6861C68.3215 32.8353 66.9763 32.7675 66.044 33.5292L57.394 40.5944L62.2681 45.4684L69.33 36.8138C70.091 35.8821 70.0232 34.5369 69.1723 33.6861Z" fill="#861B19"/>
</g>
<defs>
<filter id="filter0_d_23_1003" x="7.51633" y="8" width="95.4837" height="95.5211" filterUnits="userSpaceOnUse" color-interpolation-filters="sRGB">
<feFlood flood-opacity="0" result="BackgroundImageFix"/>
<feColorMatrix in="SourceAlpha" type="matrix" values="0 0 0 0 0 0 0 0 0 0 0 0 0 0 0 0 0 0 127 0" result="hardAlpha"/>
<feOffset dx="4" dy="4"/>
<feGaussianBlur stdDeviation="5"/>
<feColorMatrix type="matrix" values="0 0 0 0 0 0 0 0 0 0.223529 0 0 0 0 0.368627 0 0 0 0.75 0"/>
<feBlend mode="normal" in2="BackgroundImageFix" result="effect1_dropShadow_23_1003"/>
<feBlend mode="normal" in="SourceGraphic" in2="effect1_dropShadow_23_1003" result="shape"/>
</filter>
<clipPath id="clip0_23_1003">
<rect width="39" height="39" fill="white" transform="translate(32 33)"/>
</clipPath>
</defs>
</svg>
